<svg width="20" height="20" viewBox="0 0 20 20" fill="none" xmlns="http://www.w3.org/2000/svg">
<path fill-rule="evenodd" clip-rule="evenodd" d="M5.00001 8.33325C4.08334 8.33325 3.33334 9.08325 3.33334 9.99992C3.33334 10.9166 4.08334 11.6666 5.00001 11.6666C5.91668 11.6666 6.66668 10.9166 6.66668 9.99992C6.66668 9.08325 5.91668 8.33325 5.00001 8.33325ZM15 8.33325C14.0833 8.33325 13.3333 9.08325 13.3333 9.99992C13.3333 10.9166 14.0833 11.6666 15 11.6666C15.9167 11.6666 16.6667 10.9166 16.6667 9.99992C16.6667 9.08325 15.9167 8.33325 15 8.33325ZM10 8.33325C9.08334 8.33325 8.33334 9.08325 8.33334 9.99992C8.33334 10.9166 9.08334 11.6666 10 11.6666C10.9167 11.6666 11.6667 10.9166 11.6667 9.99992C11.6667 9.08325 10.9167 8.33325 10 8.33325Z" fill="#9747FF"/>
</svg>
